<svg width="546" height="132" viewBox="0 0 546 132" fill="none" xmlns="http://www.w3.org/2000/svg">
<path d="M122.16 84.672C119.504 84.672 117.04 84.256 114.768 83.424C112.496 82.56 110.528 81.344 108.864 79.776C107.232 78.208 105.952 76.368 105.024 74.256C104.096 72.112 103.632 69.76 103.632 67.2C103.632 64.64 104.096 62.304 105.024 60.192C105.952 58.048 107.248 56.192 108.912 54.624C110.576 53.056 112.544 51.856 114.816 51.024C117.12 50.16 119.632 49.728 122.352 49.728C125.52 49.728 128.352 50.256 130.848 51.312C133.344 52.368 135.408 53.888 137.04 55.872L130.992 61.344C129.84 60.096 128.592 59.168 127.248 58.56C125.936 57.92 124.464 57.6 122.832 57.6C121.392 57.6 120.08 57.824 118.896 58.272C117.712 58.72 116.704 59.376 115.872 60.24C115.04 61.072 114.384 62.08 113.904 63.264C113.456 64.416 113.232 65.728 113.232 67.2C113.232 68.608 113.456 69.904 113.904 71.088C114.384 72.272 115.04 73.296 115.872 74.16C116.704 74.992 117.696 75.648 118.848 76.128C120.032 76.576 121.328 76.8 122.736 76.8C124.144 76.8 125.52 76.576 126.864 76.128C128.208 75.648 129.568 74.848 130.944 73.728L136.272 80.4C134.352 81.776 132.128 82.832 129.6 83.568C127.072 84.304 124.592 84.672 122.16 84.672ZM127.872 79.152V66.48H136.272V80.4L127.872 79.152ZM141.866 84V57.984H150.554V65.568L149.258 63.408C150.026 61.456 151.274 60 153.002 59.04C154.73 58.048 156.826 57.552 159.29 57.552V65.76C158.874 65.696 158.506 65.664 158.186 65.664C157.898 65.632 157.578 65.616 157.226 65.616C155.37 65.616 153.866 66.128 152.714 67.152C151.562 68.144 150.986 69.776 150.986 72.048V84H141.866ZM163.053 84V57.984H172.173V84H163.053ZM167.613 55.104C165.949 55.104 164.605 54.64 163.581 53.712C162.557 52.784 162.045 51.632 162.045 50.256C162.045 48.88 162.557 47.728 163.581 46.8C164.605 45.872 165.949 45.408 167.613 45.408C169.277 45.408 170.621 45.856 171.645 46.752C172.669 47.616 173.181 48.736 173.181 50.112C173.181 51.552 172.669 52.752 171.645 53.712C170.653 54.64 169.309 55.104 167.613 55.104ZM187.556 84.432C185.348 84.432 183.188 84.176 181.076 83.664C178.996 83.152 177.316 82.512 176.036 81.744L178.772 75.504C179.988 76.24 181.412 76.832 183.044 77.28C184.676 77.696 186.276 77.904 187.844 77.904C189.38 77.904 190.436 77.744 191.012 77.424C191.62 77.104 191.924 76.672 191.924 76.128C191.924 75.616 191.636 75.248 191.06 75.024C190.516 74.768 189.78 74.576 188.852 74.448C187.956 74.32 186.964 74.176 185.876 74.016C184.788 73.856 183.684 73.648 182.564 73.392C181.476 73.104 180.468 72.688 179.54 72.144C178.644 71.568 177.924 70.8 177.38 69.84C176.836 68.88 176.564 67.664 176.564 66.192C176.564 64.528 177.044 63.056 178.004 61.776C178.996 60.464 180.436 59.44 182.324 58.704C184.212 57.936 186.516 57.552 189.236 57.552C191.06 57.552 192.9 57.744 194.756 58.128C196.644 58.48 198.228 59.024 199.508 59.76L196.772 65.952C195.492 65.216 194.212 64.72 192.932 64.464C191.652 64.176 190.436 64.032 189.284 64.032C187.748 64.032 186.66 64.208 186.02 64.56C185.412 64.912 185.108 65.344 185.108 65.856C185.108 66.368 185.38 66.768 185.924 67.056C186.468 67.312 187.188 67.52 188.084 67.68C189.012 67.808 190.02 67.952 191.108 68.112C192.196 68.24 193.284 68.448 194.372 68.736C195.492 69.024 196.5 69.456 197.396 70.032C198.324 70.576 199.06 71.328 199.604 72.288C200.148 73.216 200.42 74.416 200.42 75.888C200.42 77.488 199.924 78.928 198.932 80.208C197.972 81.488 196.532 82.512 194.612 83.28C192.724 84.048 190.372 84.432 187.556 84.432ZM221.294 57.552C223.31 57.552 225.134 57.968 226.766 58.8C228.398 59.6 229.678 60.848 230.606 62.544C231.566 64.24 232.046 66.432 232.046 69.12V84H222.926V70.608C222.926 68.752 222.542 67.408 221.774 66.576C221.038 65.712 219.998 65.28 218.654 65.28C217.694 65.28 216.814 65.504 216.014 65.952C215.214 66.368 214.59 67.024 214.142 67.92C213.694 68.816 213.47 69.984 213.47 71.424V84H204.35V48.384H213.47V65.376L211.358 63.216C212.35 61.328 213.71 59.92 215.438 58.992C217.166 58.032 219.118 57.552 221.294 57.552ZM271.66 57.552C273.676 57.552 275.468 57.968 277.036 58.8C278.636 59.6 279.884 60.848 280.78 62.544C281.708 64.24 282.172 66.432 282.172 69.12V84H273.052V70.608C273.052 68.752 272.7 67.408 271.996 66.576C271.292 65.712 270.332 65.28 269.116 65.28C268.252 65.28 267.468 65.488 266.764 65.904C266.06 66.32 265.516 66.96 265.132 67.824C264.748 68.656 264.556 69.744 264.556 71.088V84H255.436V70.608C255.436 68.752 255.084 67.408 254.38 66.576C253.708 65.712 252.748 65.28 251.5 65.28C250.604 65.28 249.804 65.488 249.1 65.904C248.428 66.32 247.884 66.96 247.468 67.824C247.084 68.656 246.892 69.744 246.892 71.088V84H237.772V57.984H246.46V65.232L244.732 63.168C245.692 61.312 247.004 59.92 248.668 58.992C250.332 58.032 252.188 57.552 254.236 57.552C256.572 57.552 258.62 58.16 260.38 59.376C262.172 60.56 263.372 62.416 263.98 64.944L261.004 64.32C261.932 62.208 263.324 60.56 265.18 59.376C267.068 58.16 269.228 57.552 271.66 57.552ZM303.816 84V79.152L303.192 77.952V69.024C303.192 67.584 302.744 66.48 301.848 65.712C300.984 64.912 299.592 64.512 297.672 64.512C296.424 64.512 295.16 64.72 293.88 65.136C292.6 65.52 291.512 66.064 290.616 66.768L287.544 60.576C289.016 59.616 290.776 58.88 292.824 58.368C294.904 57.824 296.968 57.552 299.016 57.552C303.24 57.552 306.504 58.528 308.808 60.48C311.144 62.4 312.312 65.424 312.312 69.552V84H303.816ZM296.136 84.432C294.056 84.432 292.296 84.08 290.856 83.376C289.416 82.672 288.312 81.712 287.544 80.496C286.808 79.28 286.44 77.92 286.44 76.416C286.44 74.816 286.84 73.44 287.64 72.288C288.472 71.104 289.736 70.208 291.432 69.6C293.128 68.96 295.32 68.64 298.008 68.64H304.152V73.392H299.256C297.784 73.392 296.744 73.632 296.136 74.112C295.56 74.592 295.272 75.232 295.272 76.032C295.272 76.832 295.576 77.472 296.184 77.952C296.792 78.432 297.624 78.672 298.68 78.672C299.672 78.672 300.568 78.432 301.368 77.952C302.2 77.44 302.808 76.672 303.192 75.648L304.44 79.008C303.96 80.8 303.016 82.16 301.608 83.088C300.232 83.984 298.408 84.432 296.136 84.432ZM340.965 76.56L340.437 65.904L354.885 50.4H365.349L350.949 66L345.669 71.52L340.965 76.56ZM332.469 84V50.4H341.877V84H332.469ZM355.029 84L344.085 70.128L350.277 63.504L366.069 84H355.029ZM385.075 57.552C387.091 57.552 388.915 57.968 390.547 58.8C392.179 59.6 393.459 60.848 394.387 62.544C395.347 64.24 395.827 66.432 395.827 69.12V84H386.707V70.608C386.707 68.752 386.323 67.408 385.555 66.576C384.819 65.712 383.779 65.28 382.435 65.28C381.475 65.28 380.595 65.504 379.795 65.952C378.995 66.368 378.371 67.024 377.923 67.92C377.475 68.816 377.251 69.984 377.251 71.424V84H368.131V48.384H377.251V65.376L375.139 63.216C376.131 61.328 377.491 59.92 379.219 58.992C380.947 58.032 382.899 57.552 385.075 57.552ZM417.441 84V79.152L416.817 77.952V69.024C416.817 67.584 416.369 66.48 415.473 65.712C414.609 64.912 413.217 64.512 411.297 64.512C410.049 64.512 408.785 64.72 407.505 65.136C406.225 65.52 405.137 66.064 404.241 66.768L401.169 60.576C402.641 59.616 404.401 58.88 406.449 58.368C408.529 57.824 410.593 57.552 412.641 57.552C416.865 57.552 420.129 58.528 422.433 60.48C424.769 62.4 425.937 65.424 425.937 69.552V84H417.441ZM409.761 84.432C407.681 84.432 405.921 84.08 404.481 83.376C403.041 82.672 401.937 81.712 401.169 80.496C400.433 79.28 400.065 77.92 400.065 76.416C400.065 74.816 400.465 73.44 401.265 72.288C402.097 71.104 403.361 70.208 405.057 69.6C406.753 68.96 408.945 68.64 411.633 68.64H417.777V73.392H412.881C411.409 73.392 410.369 73.632 409.761 74.112C409.185 74.592 408.897 75.232 408.897 76.032C408.897 76.832 409.201 77.472 409.809 77.952C410.417 78.432 411.249 78.672 412.305 78.672C413.297 78.672 414.193 78.432 414.993 77.952C415.825 77.44 416.433 76.672 416.817 75.648L418.065 79.008C417.585 80.8 416.641 82.16 415.233 83.088C413.857 83.984 412.033 84.432 409.761 84.432ZM465.582 57.552C467.598 57.552 469.39 57.968 470.958 58.8C472.558 59.6 473.806 60.848 474.702 62.544C475.63 64.24 476.094 66.432 476.094 69.12V84H466.974V70.608C466.974 68.752 466.622 67.408 465.918 66.576C465.214 65.712 464.254 65.28 463.038 65.28C462.174 65.28 461.39 65.488 460.686 65.904C459.982 66.32 459.438 66.96 459.054 67.824C458.67 68.656 458.478 69.744 458.478 71.088V84H449.358V70.608C449.358 68.752 449.006 67.408 448.302 66.576C447.63 65.712 446.67 65.28 445.422 65.28C444.526 65.28 443.726 65.488 443.022 65.904C442.35 66.32 441.806 66.96 441.39 67.824C441.006 68.656 440.814 69.744 440.814 71.088V84H431.694V57.984H440.382V65.232L438.654 63.168C439.614 61.312 440.926 59.92 442.59 58.992C444.254 58.032 446.11 57.552 448.158 57.552C450.494 57.552 452.542 58.16 454.302 59.376C456.094 60.56 457.294 62.416 457.902 64.944L454.926 64.32C455.854 62.208 457.246 60.56 459.102 59.376C460.99 58.16 463.15 57.552 465.582 57.552ZM498.218 84.432C495.882 84.432 493.93 83.952 492.362 82.992C490.826 82.032 489.674 80.56 488.906 78.576C488.138 76.592 487.754 74.048 487.754 70.944C487.754 67.904 488.154 65.392 488.954 63.408C489.786 61.424 490.986 59.952 492.554 58.992C494.122 58.032 496.01 57.552 498.218 57.552C500.586 57.552 502.73 58.096 504.65 59.184C506.602 60.272 508.138 61.824 509.258 63.84C510.41 65.824 510.986 68.192 510.986 70.944C510.986 73.728 510.41 76.128 509.258 78.144C508.138 80.128 506.602 81.68 504.65 82.8C502.73 83.888 500.586 84.432 498.218 84.432ZM481.85 84V48.384H490.97V62.352L490.49 70.944L490.538 79.536V84H481.85ZM496.298 77.184C497.322 77.184 498.234 76.944 499.034 76.464C499.866 75.984 500.522 75.28 501.002 74.352C501.514 73.392 501.77 72.256 501.77 70.944C501.77 69.632 501.514 68.528 501.002 67.632C500.522 66.704 499.866 66 499.034 65.52C498.234 65.04 497.322 64.8 496.298 64.8C495.274 64.8 494.346 65.04 493.514 65.52C492.714 66 492.058 66.704 491.546 67.632C491.066 68.528 490.826 69.632 490.826 70.944C490.826 72.256 491.066 73.392 491.546 74.352C492.058 75.28 492.714 75.984 493.514 76.464C494.346 76.944 495.274 77.184 496.298 77.184ZM526.169 84.432C524.057 84.432 522.153 84.016 520.457 83.184C518.793 82.352 517.481 81.056 516.521 79.296C515.593 77.504 515.129 75.248 515.129 72.528V57.984H524.249V71.04C524.249 73.056 524.617 74.496 525.353 75.36C526.121 76.224 527.193 76.656 528.569 76.656C529.465 76.656 530.281 76.448 531.017 76.032C531.753 75.616 532.345 74.96 532.793 74.064C533.241 73.136 533.465 71.952 533.465 70.512V57.984H542.585V84H533.897V76.656L535.577 78.72C534.681 80.64 533.385 82.08 531.689 83.04C529.993 83.968 528.153 84.432 526.169 84.432Z" fill="white"/>
<path d="M45.36 106.512C39.384 106.512 33.84 105.576 28.728 103.704C23.616 101.76 19.188 99.024 15.444 95.496C11.772 91.968 8.892 87.828 6.804 83.076C4.716 78.252 3.672 72.96 3.672 67.2C3.672 61.44 4.716 56.184 6.804 51.432C8.892 46.608 11.808 42.432 15.552 38.904C19.296 35.376 23.724 32.676 28.836 30.804C34.02 28.86 39.672 27.888 45.792 27.888C52.92 27.888 59.292 29.076 64.908 31.452C70.524 33.828 75.168 37.248 78.84 41.712L65.232 54.024C62.64 51.216 59.832 49.128 56.808 47.76C53.856 46.32 50.544 45.6 46.872 45.6C43.632 45.6 40.68 46.104 38.016 47.112C35.352 48.12 33.084 49.596 31.212 51.54C29.34 53.412 27.864 55.68 26.784 58.344C25.776 60.936 25.272 63.888 25.272 67.2C25.272 70.368 25.776 73.284 26.784 75.948C27.864 78.612 29.34 80.916 31.212 82.86C33.084 84.732 35.316 86.208 37.908 87.288C40.572 88.296 43.488 88.8 46.656 88.8C49.824 88.8 52.92 88.296 55.944 87.288C58.968 86.208 62.028 84.408 65.124 81.888L77.112 96.9C72.792 99.996 67.788 102.372 62.1 104.028C56.412 105.684 50.832 106.512 45.36 106.512ZM58.212 94.092V65.58H77.112V96.9L58.212 94.092Z" fill="white"/>
</svg>
